<svg width="10" height="11" viewBox="0 0 10 11" fill="none" xmlns="http://www.w3.org/2000/svg">
<path d="M2.37796 7.39562C2.21525 7.5746 2.21525 7.86482 2.37796 8.04379L4.41637 10.2839C4.74187 10.6415 5.26929 10.6414 5.59462 10.2836L7.63225 8.04214C7.795 7.86317 7.795 7.57295 7.63225 7.39397C7.46954 7.21499 7.20571 7.21499 7.043 7.39397L5.299 9.31237C5.13629 9.49139 4.87246 9.49139 4.70975 9.31237L2.96722 7.39562C2.8045 7.21664 2.54068 7.21664 2.37796 7.39562Z" fill="#808080"/>
<path d="M7.63225 3.61476C7.795 3.43577 7.795 3.14557 7.63225 2.96658L5.59383 0.726495C5.26833 0.368815 4.74096 0.368957 4.41562 0.726815L2.37796 2.96823C2.21524 3.14722 2.21524 3.43742 2.37796 3.61641C2.54068 3.7954 2.8045 3.7954 2.96722 3.61641L4.71125 1.69799C4.87396 1.519 5.13779 1.519 5.3005 1.69799L7.043 3.61476C7.20571 3.79375 7.46954 3.79375 7.63225 3.61476Z" fill="#808080"/>
</svg>
